# AST/ASF file generated using VICON BodyLanguage
# -----------------------------------------------
:version 1.10
:name VICON
:units
  mass 1.0
  length 0.45
  angle deg
:documentation
   .ast/.asf automatically generated from VICON data using
   VICON BodyBuilder and BodyLanguage model FoxedUp or BRILLIANT.MOD
:root
   order TX TY TZ RX RY RZ
   axis XYZ
   position 0 0 0  
   orientation 0 0 0 
:bonedata
  begin
     id 1 
     name lhipjoint
     direction 0.677091 -0.635792 0.370561 
     length 2.74323 
     axis 0 0 0  XYZ
  end
  begin
     id 2 
     name lfemur
     direction 0.34202 -0.939693 0  
     length 7.44995  
     axis 0 0 20  XYZ
    dof rx ry rz
    limits (-160.0 20.0)
           (-70.0 70.0)
           (-60.0 70.0)
  end
  begin
     id 3 
     name ltibia
     direction 0.34202 -0.939693 0   
     length 7.34467   
     axis 0 0 20   XYZ
    dof rx
    limits (-10.0 170.0)
  end
  begin
     id 4 
     name lfoot
     direction 0.101953 -0.280114 0.954537   
     length 1.72105   
     axis -90 7.62852e-016 20   XYZ
    dof rx rz
    limits (-45.0 90.0)
           (-70.0 20.0)
  end
  begin
     id 5 
     name ltoes
     direction 1.53537e-011 -4.21915e-011 1   
     length 0.865872   
     axis -90 7.62852e-016 20   XYZ
    dof rx
    limits (-90.0 20.0)
  end
  begin
     id 6 
     name rhipjoint
     direction -0.695735 -0.620586 0.361699   
     length 2.81045  
     axis 0 0 0  XYZ 
  end
  begin
     id 7 
     name rfemur
     direction -0.34202 -0.939693 0   
     length 7.29387   
     axis 0 0 -20   XYZ
    dof rx ry rz
    limits (-160.0 20.0)
           (-70.0 70.0)
           (-70.0 60.0)
  end
  begin
     id 8 
     name rtibia
     direction -0.34202 -0.939693 0   
     length 7.44935   
     axis 0 0 -20   XYZ
    dof rx
    limits (-10.0 170.0)
 end
 begin
     id 9 
     name rfoot
     direction -0.104163 -0.286184 0.952496   
     length 1.77731  
     axis -90 -7.62852e-016 -20   XYZ
    dof rx rz
    limits (-45.0 90.0)
           (-20.0 70.0)
  end
  begin
     id 10 
     name rtoes
     direction -1.5355e-011 -4.21888e-011 1   
     length 0.892424   
     axis -90 -7.62852e-016 -20   XYZ
    dof rx
    limits (-90.0 20.0)
  end
  begin
     id 11 
     name lowerback
     direction 0.0100202 0.997226 -0.0737589   
     length 2.16892   
     axis 0 0 0   XYZ
    dof rx ry rz
    limits (-20.0 45.0)
           (-30.0 30.0)
           (-30.0 30.0)
  end
  begin
     id 12 
     name upperback
     direction 0.00432398 0.999988 -0.00215019   
     length 2.17326   
     axis 0 0 0   XYZ
    dof rx ry rz
    limits (-20.0 45.0)
           (-30.0 30.0)
           (-30.0 30.0)
  end
  begin
     id 13 
     name thorax
     direction -0.00195047 0.999485 0.0320434   
     length 2.18139   
     axis 0 0 0   XYZ
    dof rx ry rz
    limits (-20.0 45.0)
           (-30.0 30.0)
           (-30.0 30.0)
  end
  begin
     id 14 
     name lowerneck
     direction 0.00782762 0.986241 0.165128   
     length 1.88415   
     axis 0 0 0   XYZ
    dof rx ry rz
    limits (-20.0 45.0)
           (-30.0 30.0)
           (-30.0 30.0)
  end
  begin
     id 15 
     name upperneck
     direction 0.00988667 0.981098 -0.193258   
     length 1.9242   
     axis 0 0 0   XYZ
    dof rx ry rz
    limits (-20.0 45.0)
           (-30.0 30.0)
           (-30.0 30.0)
  end
  begin
     id 16
     name head
     direction 0.00252199 0.996513 -0.0833958  
     length 1.93887  
     axis 0 0 0   XYZ
    dof rx ry rz
    limits (-20.0 45.0)
           (-30.0 30.0)
           (-30.0 30.0)
  end
  begin
     id 17 
     name lclavicle
     direction 0.929492 0.368193 -0.0218667  
     length 3.5955  
     axis 0 0 0   XYZ
    dof ry rz
    limits (-20.0 10.0)
           (0.0 20.0)
  end
  begin
     id 18 
     name lhumerus
     direction 1 -4.48972e-011 1.41911e-027   
     length 5.2795   
     axis 180 -30 -90   XYZ
    dof rx ry rz
    limits (-60.0 90.0)
           (-90.0 90.0)
           (-90.0 90.0)
  end
  begin
     id 19
     name lradius
     direction 1 -4.48963e-011 7.05772e-027   
     length 3.53504   
     axis 180 -30 -90   XYZ
    dof rx
    limits (-10.0 170.0)
  end
  begin
     id 20
     name lwrist
     direction 1 -4.48957e-011 9.54866e-027   
     length 1.76752   
     axis -7.69462e-015 90 90   XYZ
    dof ry
    limits (-180.0 0.0)
 end
  begin
     id 21 
     name lhand
     direction 1 -4.48979e-011 1.90973e-026   
     length 0.667948   
     axis -1.21857e-014 90 90   XYZ
    dof rx rz
    limits (-90.0 90.0)
           (-45.0 45.0)
  end
  begin
     id 22 
     name lfingers
     direction 1 -4.48987e-011 3.81946e-026   
     length 0.538517   
     axis -2.43714e-014 90 90   XYZ
    dof rx
    limits (0.0 90.0)
  end
  begin
     id 23
     name lthumb
     direction 0.707107 -6.34962e-011 0.707107   
     length 0.773206   
     axis -90 45 2.85299e-015   XYZ
    dof rx rz
    limits (-45.0 45.0)
           (-45.0 45.0)
  end
  begin
     id 24 
     name rclavicle
     direction -0.898763 0.414256 -0.143584   
     length 3.5176  
     axis 0 0 0   XYZ 
    dof ry rz
    limits (-10.0 20.0)
           (-20.0 0.0)
  end
  begin
     id 25 
     name rhumerus
     direction -1 -4.48971e-011 1.129e-027  
     length 5.25035   
     axis 180 30 90   XYZ
    dof rx ry rz
    limits (-90.0 60.0)
           (-90.0 90.0)
           (-90.0 90.0)
  end
  begin
     id 26 
     name rradius
     direction -1 -4.48955e-011 6.34664e-027   
     length 3.58884   
     axis 180 30 90   XYZ
    dof rx
    limits (-10.0 170.0)
  end
  begin
     id 27 
     name rwrist
     direction -1 -4.48966e-011 9.54866e-027   
     length 1.79442   
     axis -7.69462e-015 -90 -90   XYZ
    dof ry
    limits (-180.0 0.0)
  end
  begin
     id 28
     name rhand
     direction -1 -4.48973e-011 1.90973e-026   
     length 0.779235   
     axis -1.21857e-014 -90 -90   XYZ
    dof rx rz
    limits (-90.0 90.0)
           (-45.0 45.0)
  end
  begin
     id 29
     name rfingers
     direction -1 -4.48984e-011 3.81946e-026   
     length 0.62824   
     axis -2.43714e-014 -90 -90   XYZ
    dof rx
    limits (0.0 90.0)
  end
  begin
     id 30
     name rthumb
     direction -0.707107 -6.34968e-011 0.707107   
     length 0.90203   
     axis -90 -45 -2.85299e-015   XYZ
    dof rx rz
    limits (-45.0 45.0)
           (-45.0 45.0)
  end
:hierarchy
  begin
    root lhipjoint rhipjoint lowerback
    lhipjoint lfemur
    lfemur ltibia
    ltibia lfoot
    lfoot ltoes
    rhipjoint rfemur
    rfemur rtibia
    rtibia rfoot
    rfoot rtoes
    lowerback upperback
    upperback thorax
    thorax lowerneck lclavicle rclavicle
    lowerneck upperneck
    upperneck head
    lclavicle lhumerus
    lhumerus lradius
    lradius lwrist
    lwrist lhand lthumb
    lhand lfingers
    rclavicle rhumerus
    rhumerus rradius
    rradius rwrist
    rwrist rhand rthumb
    rhand rfingers
  end

#!OML:ASF I:\Random Stuff\random\construction\7_22_03\Session 2\subj1.ASF
:FULLY-SPECIFIED
:DEGREES
206
root -2.03447 17.8163 5.85525 3.79272 61.658 -8.03149
lowerback 2.23334 0.831038 1.83585
upperback -1.14217 1.18122 0.428842
thorax -2.39595 0.564945 -0.638963
lowerneck -20.1061 -6.74539 -4.90398
upperneck 41.1982 -8.58739 2.43179
head 19.7508 -3.43807 0.261504
rclavicle -1.19271e-015 -2.18663e-015
rhumerus -15.139 29.0117 -66.1331
rradius 63.1848
rwrist -22.9107
rhand -40.7746 15.4941
rfingers 7.12502
rthumb -13.7144 -14.0339
lclavicle -1.19271e-015 -2.18663e-015
lhumerus -16.0073 -14.8911 78.0468
lradius 75.2499
lwrist 28.6347
lhand -19.5314 68.6977
lfingers 7.12502
lthumb -173.208 81.4313
rfemur -11.7617 12.8087 20.929
rtibia 10.6902
rfoot -5.66448 -16.349
rtoes -18.8041
lfemur -17.3759 -19.2822 -9.49556
ltibia 22.1741
lfoot -14.4802 16.4277
ltoes -26.8428
207
root -2.02537 17.8144 5.85942 3.90283 61.6391 -7.9553
lowerback 2.19914 0.797049 1.67124
upperback -1.14954 1.12811 0.366167
thorax -2.3873 0.540453 -0.608395
lowerneck -20.2238 -6.62974 -4.88674
upperneck 41.3316 -8.40822 2.43554
head 19.8597 -3.35977 0.297941
rclavicle 3.3048e-014 -8.74653e-015
rhumerus -15.108 29.1999 -66.1323
rradius 63.3566
rwrist -18.7883
rhand -41.6833 13.698
rfingers 7.12502
rthumb -14.59 -15.7689
lclavicle 3.3048e-014 -8.74653e-015
lhumerus -16.1414 -14.9558 78.026
lradius 75.5127
lwrist 28.0557
lhand -19.5729 68.9462
lfingers 7.12502
lthumb -173.248 81.1815
rfemur -11.7149 12.6903 20.9206
rtibia 10.5612
rfoot -5.47488 -16.2642
rtoes -20.3384
lfemur -17.4106 -19.2732 -9.53706
ltibia 22.2459
lfoot -14.5132 16.484
ltoes -26.7505
208
root -2.01627 17.8156 5.86255 3.84456 61.595 -8.05039
lowerback 2.18885 0.761902 1.58503
upperback -1.16514 1.07747 0.329785
thorax -2.39948 0.516025 -0.59533
lowerneck -20.315 -6.52368 -4.86083
upperneck 41.4952 -8.22335 2.38539
head 19.976 -3.28547 0.30889
rclavicle -1.00883e-014 -7.95139e-016
rhumerus -14.9596 29.4632 -66.113
rradius 63.545
rwrist -16.2676
rhand -41.7876 12.2325
rfingers 7.12502
rthumb -14.6905 -17.227
lclavicle -1.00883e-014 -7.95139e-016
lhumerus -16.3816 -14.9963 77.9838
lradius 75.8136
lwrist 27.5706
lhand -19.7672 69.2524
lfingers 7.12502
lthumb -173.435 80.8694
rfemur -11.6644 12.7678 20.9564
rtibia 10.472
rfoot -5.53755 -16.2601
rtoes -19.2653
lfemur -17.4042 -19.4029 -9.47672
ltibia 22.2879
lfoot -14.4842 16.6762
ltoes -26.2811
209
root -2.0075 17.8168 5.86376 3.6892 61.5389 -8.25304
lowerback 2.16887 0.722224 1.55957
upperback -1.17075 1.02299 0.314641
thorax -2.39533 0.489107 -0.594104
lowerneck -20.2977 -6.41422 -4.79164
upperneck 41.4635 -8.02554 2.26752
head 19.923 -3.2187 0.284692
rclavicle -2.48481e-014 8.34896e-015
rhumerus -14.6246 29.5885 -65.9945
rradius 63.6118
rwrist -13.6048
rhand -41.0182 10.5136
rfingers 7.12502
rthumb -13.9492 -18.9985
lclavicle -2.48481e-014 8.34896e-015
lhumerus -16.6689 -14.9323 77.9334
lradius 76.1404
lwrist 27.056
lhand -19.8529 69.4852
lfingers 7.12502
lthumb -173.518 80.6339
rfemur -11.6123 12.8725 21.0408
rtibia 10.3839
rfoot -5.64687 -16.2465
rtoes -17.6469
lfemur -17.3909 -19.4863 -9.36755
ltibia 22.3209
lfoot -14.4873 16.8423
ltoes -26.029
210
root -1.99835 17.8154 5.86434 3.5637 61.4765 -8.39584
lowerback 2.15217 0.697272 1.49712
upperback -1.17161 0.986892 0.296792
thorax -2.38827 0.471959 -0.575716
lowerneck -20.1903 -6.31893 -4.75545
upperneck 41.3922 -7.86112 2.20243
head 19.8278 -3.16438 0.287499
rclavicle -1.06847e-014 -1.11319e-014
rhumerus -14.2504 29.5278 -65.825
rradius 63.5623
rwrist -10.741
rhand -39.7344 8.55556
rfingers 7.12502
rthumb -12.7118 -21.0375
lclavicle -1.06847e-014 -1.11319e-014
lhumerus -16.9445 -14.8706 77.9314
lradius 76.4017
lwrist 26.2666
lhand -19.9836 69.4431
lfingers 7.12502
lthumb -173.644 80.6723
rfemur -11.5139 12.9174 21.1194
rtibia 10.2492
rfoot -5.57597 -16.2159
rtoes -17.9168
lfemur -17.3639 -19.2974 -9.33476
ltibia 22.3812
lfoot -14.563 16.7813
ltoes -26.3211
211
root -1.989 17.8136 5.86668 3.44411 61.3968 -8.52388
lowerback 2.12417 0.692143 1.37745
upperback -1.18024 0.975616 0.288833
thorax -2.38337 0.468165 -0.516076
lowerneck -20.115 -6.24697 -4.72087
upperneck 41.4535 -7.72025 2.11619
head 19.829 -3.1166 0.274051
rclavicle 1.43622e-014 -9.14409e-015
rhumerus -14.1709 29.1879 -65.8201
rradius 63.7223
rwrist -8.62218
rhand -38.1132 7.4474
rfingers 7.12502
rthumb -11.1484 -22.2364
lclavicle 1.43622e-014 -9.14409e-015
lhumerus -17.1058 -14.8369 77.9246
lradius 76.4662
lwrist 25.4744
lhand -20.1819 69.3895
lfingers 7.12502
lthumb -173.836 80.7202
rfemur -11.381 13.0316 21.1895
rtibia 10.061
rfoot -5.46837 -16.2423
rtoes -18.3716
lfemur -17.3435 -19.1513 -9.299
ltibia 22.4821
lfoot -14.6473 16.7894
ltoes -26.5859
212
root -1.9801 17.81 5.86862 3.38009 61.311 -8.62938
lowerback 2.0693 0.699012 1.24116
upperback -1.20167 0.979723 0.283258
thorax -2.37655 0.472338 -0.445036
lowerneck -20.1041 -6.18156 -4.69534
upperneck 41.5521 -7.59584 2.05551
head 19.8769 -3.07051 0.268924
rclavicle -1.76918e-014 4.77083e-015
rhumerus -14.3331 28.4082 -65.9765
rradius 64.0933
rwrist -6.72515
rhand -36.3777 6.63616
rfingers 7.12502
rthumb -9.47428 -23.1309
lclavicle -1.76918e-014 4.77083e-015
lhumerus -17.1183 -14.7852 77.8408
lradius 76.3445
lwrist 24.9328
lhand -20.2741 69.5907
lfingers 7.12502
lthumb -173.925 80.5164
rfemur -11.2703 13.1619 21.2348
rtibia 9.79806
rfoot -5.15046 -16.3563
rtoes -19.9137
lfemur -17.382 -19.1854 -9.23904
ltibia 22.625
lfoot -14.7772 16.9342
ltoes -26.5431
